<svg width="26" height="26" viewBox="0 0 26 26" fill="none" xmlns="http://www.w3.org/2000/svg">
<path d="M22.75 20.0417C22.75 21.5378 21.5378 22.75 20.0417 22.75H5.95833C4.46279 22.75 3.25 21.5378 3.25 20.0417V5.95833C3.25 4.46225 4.46279 3.25 5.95833 3.25H20.0417C21.5378 3.25 22.75 4.46225 22.75 5.95833V20.0417Z" fill="#0078D4"/>
<path opacity="0.05" d="M16.25 20.0417V14.5714C16.25 13.6565 15.8064 13.11 15.0627 13.11C14.6212 13.11 14.2968 13.3586 14.0991 13.8488C14.0898 13.8835 14.0768 14.0248 14.0823 14.4522L14.0833 20.0417H10.2917V9.75H14.0833V10.3247C14.6369 9.94283 15.3156 9.75 16.1081 9.75C18.5711 9.75 20.0411 11.4254 20.0411 14.2318L20.0417 20.0417H16.25ZM5.95834 20.0417V9.75H7.83089C6.74593 9.75 5.95834 8.95267 5.95834 7.85362C5.95834 6.75567 6.75893 5.95833 7.86176 5.95833C8.95159 5.95833 9.7278 6.73346 9.75001 7.84279C9.75001 8.94996 8.94889 9.75 7.84605 9.75H9.75001V20.0417H5.95834Z" fill="black"/>
<path opacity="0.07" d="M16.5208 19.7708V14.5714C16.5208 13.5027 15.9624 12.8391 15.0627 12.8391C14.3612 12.8391 14.0145 13.3331 13.8477 13.7475C13.8033 13.8553 13.8092 14.2832 13.8114 14.4657L13.8125 19.7708H10.5625V10.0208H13.8125V10.9081C14.2431 10.4623 14.9364 10.0208 16.1081 10.0208C18.4009 10.0208 19.7703 11.5949 19.7703 14.2317L19.7708 19.7708H16.5208ZM6.22916 19.7708V10.0208H9.47916V19.7708H6.22916ZM7.83086 9.47917C6.90299 9.47917 6.22916 8.79558 6.22916 7.85362C6.22916 6.91221 6.91599 6.22917 7.86174 6.22917C8.79557 6.22917 9.4602 6.89487 9.47916 7.84821C9.47916 8.79558 8.79232 9.47917 7.84603 9.47917H7.83086Z" fill="black"/>
<path d="M6.5 10.2917H9.20833V19.5H6.5V10.2917ZM7.84604 9.20833H7.83087C7.02271 9.20833 6.5 8.606 6.5 7.85362C6.5 7.085 7.03896 6.5 7.86175 6.5C8.68563 6.5 9.19317 7.085 9.20833 7.85362C9.20833 8.60546 8.68562 9.20833 7.84604 9.20833ZM19.5 19.5H16.7917V14.5714C16.7917 13.3808 16.1281 12.5683 15.0627 12.5683C14.2496 12.5683 13.8098 13.1165 13.5964 13.6462C13.5184 13.8358 13.5417 14.3601 13.5417 14.625V19.5H10.8333V10.2917H13.5417V11.7087C13.9322 11.1042 14.5438 10.2917 16.1081 10.2917C18.0462 10.2917 19.4995 11.5104 19.4995 14.2318L19.5 19.5Z" fill="white"/>
</svg>
