<svg width="26" height="26" viewBox="0 0 26 26" fill="none" xmlns="http://www.w3.org/2000/svg">
<g clip-path="url(#clip0_4_173)">
<path d="M13 0.5C9.61458 0.5 9.18675 0.518601 7.84746 0.574405C6.50818 0.630208 5.61532 0.853422 4.81547 1.15104C3.99702 1.46726 3.29018 1.89509 2.60193 2.60193C1.91369 3.30878 1.46726 3.99702 1.15104 4.81547C0.853422 5.61532 0.630208 6.50818 0.574405 7.84746C0.518601 9.18675 0.5 9.61458 0.5 13C0.5 16.3854 0.518601 16.8132 0.574405 18.1525C0.630208 19.4918 0.853422 20.3847 1.15104 21.1845C1.46726 22.003 1.89509 22.7098 2.60193 23.398C3.30878 24.0863 3.99702 24.5141 4.81547 24.8489C5.61532 25.1652 6.52678 25.3698 7.84746 25.4256C9.18675 25.4814 9.61458 25.5 13 25.5C16.3854 25.5 16.8132 25.4814 18.1525 25.4256C19.4918 25.3698 20.3847 25.1466 21.1845 24.8489C22.003 24.5327 22.7098 24.1049 23.398 23.398C24.0863 22.6912 24.5141 22.003 24.8489 21.1845C25.1652 20.3847 25.3698 19.4732 25.4256 18.1525C25.4814 16.8132 25.5 16.3854 25.5 13C25.5 9.59598 25.4814 9.18675 25.4256 7.84746C25.3698 6.50818 25.1466 5.61532 24.8489 4.81547C24.5327 3.99702 24.1049 3.29018 23.398 2.60193C22.6912 1.91369 22.003 1.48586 21.1845 1.15104C20.3847 0.834821 19.4732 0.630208 18.1525 0.574405C16.8132 0.518601 16.3854 0.5 13 0.5ZM13 2.75074C16.3296 2.75074 16.7388 2.76934 18.0595 2.82515C19.2872 2.88095 19.9382 3.08556 20.3847 3.25297C20.9613 3.47619 21.3891 3.75521 21.8169 4.18303C22.2634 4.62946 22.5238 5.03869 22.747 5.61532C22.9144 6.06175 23.119 6.71279 23.1748 7.94047C23.2306 9.26115 23.2492 9.65178 23.2492 13C23.2492 16.3296 23.2306 16.7388 23.1748 18.0595C23.119 19.2872 22.9144 19.9382 22.747 20.3847C22.5238 20.9613 22.2448 21.3891 21.8169 21.8169C21.3705 22.2634 20.9613 22.5238 20.3847 22.747C19.9382 22.9144 19.2872 23.119 18.0595 23.1748C16.7388 23.2306 16.3482 23.2492 13 23.2492C9.65178 23.2492 9.26115 23.2306 7.94047 23.1748C6.71279 23.119 6.06175 22.9144 5.61532 22.747C5.03869 22.5238 4.61086 22.2448 4.18303 21.8169C3.7366 21.3705 3.47619 20.9613 3.25297 20.3847C3.08556 19.9382 2.88095 19.2872 2.82515 18.0595C2.76934 16.7388 2.75074 16.3296 2.75074 13C2.75074 9.67038 2.76934 9.26115 2.82515 7.94047C2.88095 6.71279 3.08556 6.06175 3.25297 5.61532C3.47619 5.03869 3.75521 4.61086 4.18303 4.18303C4.62946 3.7366 5.03869 3.47619 5.61532 3.25297C6.06175 3.08556 6.71279 2.88095 7.94047 2.82515C9.26115 2.76934 9.67038 2.75074 13 2.75074Z" fill="#C13584"/>
<path d="M13.0002 17.1667C10.6936 17.1667 8.83351 15.3066 8.83351 13C8.83351 10.6935 10.6936 8.83335 13.0002 8.83335C15.3067 8.83335 17.1668 10.6935 17.1668 13C17.1668 15.3066 15.3067 17.1667 13.0002 17.1667ZM13.0002 6.58261C9.44734 6.58261 6.58276 9.46579 6.58276 13C6.58276 16.5528 9.46595 19.4174 13.0002 19.4174C16.5344 19.4174 19.4176 16.5342 19.4176 13C19.4176 9.44719 16.553 6.58261 13.0002 6.58261Z" fill="#C13584"/>
<path d="M21.166 6.3222C21.166 7.15925 20.4963 7.8289 19.6593 7.8289C18.8222 7.8289 18.1526 7.15925 18.1526 6.3222C18.1526 5.48515 18.8222 4.81551 19.6593 4.81551C20.4963 4.83411 21.166 5.50375 21.166 6.3222Z" fill="#C13584"/>
</g>
<defs>
<clipPath id="clip0_4_173">
<rect width="26" height="26" fill="white"/>
</clipPath>
</defs>
</svg>
