<svg width="26" height="26" viewBox="0 0 26 26" fill="none" xmlns="http://www.w3.org/2000/svg">
<path d="M22.75 20.0417C22.75 21.5378 21.5378 22.75 20.0417 22.75H5.95833C4.46279 22.75 3.25 21.5378 3.25 20.0417V5.95833C3.25 4.46225 4.46279 3.25 5.95833 3.25H20.0417C21.5378 3.25 22.75 4.46225 22.75 5.95833V20.0417Z" fill="#0078D4"/>
<path opacity="0.05" d="M16.25 20.0416V14.5713C16.25 13.6564 15.8064 13.1099 15.0626 13.1099C14.6212 13.1099 14.2967 13.3585 14.099 13.8487C14.0898 13.8834 14.0768 14.0248 14.0822 14.4521L14.0833 20.0416H10.2916V9.74992H14.0833V10.3246C14.6369 9.94275 15.3156 9.74992 16.1081 9.74992C18.571 9.74992 20.0411 11.4253 20.0411 14.2317L20.0416 20.0416H16.25ZM5.95831 20.0416V9.74992H7.83085C6.7459 9.74992 5.95831 8.95259 5.95831 7.85354C5.95831 6.75559 6.7589 5.95825 7.86173 5.95825C8.95156 5.95825 9.72777 6.73338 9.74998 7.84271C9.74998 8.94988 8.94885 9.74992 7.84602 9.74992H9.74998V20.0416H5.95831Z" fill="black"/>
<path opacity="0.07" d="M16.5209 19.7709V14.5715C16.5209 13.5027 15.9624 12.8392 15.0627 12.8392C14.3612 12.8392 14.0146 13.3332 13.8477 13.7476C13.8033 13.8554 13.8093 14.2833 13.8114 14.4658L13.8125 19.7709H10.5625V10.0209H13.8125V10.9082C14.2431 10.4624 14.9365 10.0209 16.1081 10.0209C18.401 10.0209 19.7703 11.595 19.7703 14.2318L19.7709 19.7709H16.5209ZM6.22919 19.7709V10.0209H9.47919V19.7709H6.22919ZM7.8309 9.47925C6.90302 9.47925 6.22919 8.79566 6.22919 7.85371C6.22919 6.91229 6.91602 6.22925 7.86177 6.22925C8.7956 6.22925 9.46023 6.89496 9.47919 7.84829C9.47919 8.79567 8.79235 9.47925 7.84606 9.47925H7.8309Z" fill="black"/>
<path d="M6.5 10.2917H9.20833V19.5H6.5V10.2917ZM7.84604 9.20833H7.83087C7.02271 9.20833 6.5 8.606 6.5 7.85362C6.5 7.085 7.03896 6.5 7.86175 6.5C8.68563 6.5 9.19317 7.085 9.20833 7.85362C9.20833 8.60546 8.68562 9.20833 7.84604 9.20833ZM19.5 19.5H16.7917V14.5714C16.7917 13.3808 16.1281 12.5683 15.0627 12.5683C14.2496 12.5683 13.8098 13.1165 13.5964 13.6462C13.5184 13.8358 13.5417 14.3601 13.5417 14.625V19.5H10.8333V10.2917H13.5417V11.7087C13.9322 11.1042 14.5438 10.2917 16.1081 10.2917C18.0462 10.2917 19.4995 11.5104 19.4995 14.2318L19.5 19.5Z" fill="white"/>
</svg>
