<svg width="26" height="26" viewBox="0 0 26 26" fill="none" xmlns="http://www.w3.org/2000/svg">
<path d="M23.4 18.3625C23.1833 19.5 22.2625 20.3667 21.125 20.5292C19.3375 20.8 16.3583 21.125 13 21.125C9.69582 21.125 6.71666 20.8 4.87499 20.5292C3.73749 20.3667 2.81666 19.5 2.59999 18.3625C2.38332 17.1167 2.16666 15.275 2.16666 13C2.16666 10.725 2.38332 8.88333 2.59999 7.6375C2.81666 6.5 3.73749 5.63333 4.87499 5.47083C6.66249 5.2 9.64166 4.875 13 4.875C16.3583 4.875 19.2833 5.2 21.125 5.47083C22.2625 5.63333 23.1833 6.5 23.4 7.6375C23.6167 8.88333 23.8875 10.725 23.8875 13C23.8333 15.275 23.6167 17.1167 23.4 18.3625Z" fill="#FF3D00"/>
<path d="M10.8333 16.7917V9.20833L17.3333 13L10.8333 16.7917Z" fill="white"/>
</svg>
