<svg width="26" height="26" viewBox="0 0 26 26" fill="none" xmlns="http://www.w3.org/2000/svg">
<g clip-path="url(#clip0_4_177)">
<path d="M13 0C5.83994 0 0.0223694 5.81757 0.0223694 12.9776C0.0223694 18.3029 3.19966 22.8675 7.80894 24.8812C7.76418 23.9862 7.80894 22.8675 8.0327 21.883C8.30123 20.809 9.68847 14.8124 9.68847 14.8124C9.68847 14.8124 9.2857 13.9621 9.2857 12.7539C9.2857 10.8296 10.4045 9.39757 11.7917 9.39757C12.9552 9.39757 13.537 10.2926 13.537 11.3666C13.537 12.5301 12.7762 14.3201 12.3735 15.9759C12.0602 17.3631 13.0447 18.4819 14.432 18.4819C16.8933 18.4819 18.549 15.3046 18.549 11.5903C18.549 8.72623 16.6247 6.623 13.1342 6.623C9.19618 6.623 6.73494 9.57652 6.73494 12.8433C6.73494 13.962 7.04818 14.7676 7.58518 15.394C7.80894 15.6626 7.8537 15.7968 7.76418 16.11C7.71942 16.3338 7.54042 16.9156 7.49565 17.1393C7.40613 17.4525 7.13765 17.5868 6.82442 17.4525C4.98965 16.6918 4.18413 14.7228 4.18413 12.4852C4.18413 8.81571 7.27189 4.38542 13.4475 4.38542C18.4147 4.38542 21.6816 7.96547 21.6816 11.814C21.6816 16.9155 18.8623 20.7193 14.7005 20.7193C13.3132 20.7193 11.9708 19.9586 11.5232 19.1083C11.5232 19.1083 10.7625 22.1066 10.6282 22.6884C10.3597 23.6729 9.8227 24.7021 9.33046 25.4629C10.494 25.8209 11.747 25.9999 13 25.9999C20.16 25.9999 25.9776 20.1823 25.9776 13.0223C25.9776 5.86223 20.1601 0 13 0Z" fill="#CB1F24"/>
</g>
<defs>
<clipPath id="clip0_4_177">
<rect width="26" height="26" fill="white"/>
</clipPath>
</defs>
</svg>
